<?xml version="1.0" encoding="UTF-8" standalone="no"?>
<!-- Generator: Adobe Illustrator 12.0.0, SVG Export Plug-In . SVG Version: 6.00 Build 51448)  -->
<svg height="135.511" id="Layer_1" inkscape:version="0.43" sodipodi:docbase="/home/naught101/Desktop" sodipodi:docname="warning.svg" sodipodi:version="0.32" space="preserve" style="overflow:visible;enable-background:new 0 0 135.55 135.511;" version="1.1" viewBox="0 0 135.55 135.511" width="135.55" xmlns="http://www.w3.org/2000/svg" xmlns:cc="http://web.resource.org/cc/" xmlns:dc="http://purl.org/dc/elements/1.1/" xmlns:inkscape="http://www.inkscape.org/namespaces/inkscape" xmlns:rdf="http://www.w3.org/1999/02/22-rdf-syntax-ns#" xmlns:sodipodi="http://inkscape.sourceforge.net/DTD/sodipodi-0.dtd" xmlns:svg="http://www.w3.org/2000/svg">
  <metadata>
    <rdf:RDF xmlns:cc="http://web.resource.org/cc/" xmlns:dc="http://purl.org/dc/elements/1.1/" xmlns:rdf="http://www.w3.org/1999/02/22-rdf-syntax-ns#">
      <cc:Work rdf:about="">
        <dc:title>warning</dc:title>
        <dc:description>adapted from "Attenzione" by Architetto Francesco Rollandin (also on OCAL)</dc:description>
        <dc:subject>
          <rdf:Bag>
            <rdf:li>exclaimation</rdf:li>
            <rdf:li>exclaimation mark</rdf:li>
            <rdf:li>warning</rdf:li>
          </rdf:Bag>
        </dc:subject>
        <dc:publisher>
          <cc:Agent rdf:about="http://www.openclipart.org/">
            <dc:title>Open Clip Art Library</dc:title>
          </cc:Agent>
        </dc:publisher>
        <dc:creator>
          <cc:Agent>
            <dc:title>naught101</dc:title>
          </cc:Agent>
        </dc:creator>
        <dc:rights>
          <cc:Agent>
            <dc:title>naught101</dc:title>
          </cc:Agent>
        </dc:rights>
        <dc:date/>
        <dc:format>image/svg+xml</dc:format>
        <dc:type rdf:resource="http://purl.org/dc/dcmitype/StillImage"/>
        <cc:license rdf:resource="http://web.resource.org/cc/PublicDomain"/>
        <dc:language>en</dc:language>
      </cc:Work>
      <cc:License rdf:about="http://web.resource.org/cc/PublicDomain">
        <cc:permits rdf:resource="http://web.resource.org/cc/Reproduction"/>
        <cc:permits rdf:resource="http://web.resource.org/cc/Distribution"/>
        <cc:permits rdf:resource="http://web.resource.org/cc/DerivativeWorks"/>
      </cc:License>
    </rdf:RDF>
  </metadata>
  <defs id="defs25"/>
  <sodipodi:namedview bordercolor="#666666" borderopacity="1.0" id="base" inkscape:current-layer="Layer_1" inkscape:cx="67.775039" inkscape:cy="67.756625" inkscape:pageopacity="0.0" inkscape:pageshadow="2" inkscape:window-height="712" inkscape:window-width="1020" inkscape:window-x="0" inkscape:window-y="0" inkscape:zoom="4.1472613" pagecolor="#ffffff"/>
  <path d="M135.55,67.732c0,34.533-27.088,64.336-61.504,67.5c-34.428,3.165-66.644-21.045-72.942-55.092  c-6.297-34.04,14.95-68.33,48.31-77.686c33.372-9.357,69.43,8.813,81.738,41.207C134.067,51.334,135.55,59.525,135.55,67.732" id="path3" style="fill:#d05800;fill-opacity:1.0000000"/>
  <radialGradient cx="44.4468" cy="46.3291" gradientUnits="userSpaceOnUse" id="XMLID_2_" r="84.7307">
    <stop id="stop6" offset="0" style="stop-color:#FFC154"/>
    <stop id="stop8" offset="1" style="stop-color:#F29B00"/>
  </radialGradient>
  <path d="M130.755,67.732c0,34.33-28.665,62.995-62.995,62.995c-34.331,0-62.995-28.665-62.995-62.995  c0-34.331,28.664-62.995,62.995-62.995C102.09,4.737,130.755,33.401,130.755,67.732" id="path10" style="fill:url(#XMLID_2_);"/>
  <path d="M124.68,43.246c5.089,29.667-12.629,59.468-41.123,69.176c-30.22,10.297-64.225-4.923-76.863-34.193  c6.073,35.425,42.497,58.713,77.203,49.347C119.728,117.905,139.449,77.414,124.68,43.246" id="path12" style="fill:#F28500;"/>
  <path d="M107.105,39.768c-8.712,1.802-18.743-10.54-26.297-13.679c-14.114-5.867-31.741-3.143-44.526,4.846  c-13.523,8.449-23.141,24.68-24.622,40.611c-0.004,0.045-0.005,0.054-0.002,0.024c0.999-9.647,0.325-18.717,3.999-28.043  c6.087-15.458,19.253-27.563,35.127-32.426c16.41-5.027,34.356-1.828,48.495,7.753C103.643,21.814,120.448,37.005,107.105,39.768" id="path14" style="fill:#FFE000;"/>
  <path d="M 81.825123,29.78055 C 81.825123,42.09455 79.706123,55.03755 76.954123,66.99255 C 75.304123,74.15855 68.692123,93.55955 61.725123,78.31155 C 55.997123,65.77855 55.090123,50.35855 54.156123,36.78755 C 53.745123,30.85055 53.127123,24.97055 58.640123,20.97455 C 66.334123,15.39555 81.825123,18.44655 81.825123,29.78055" id="path16" style="fill:#d05800;fill-opacity:1"/>
  <path d="M 79.002123,30.23855 C 79.002123,40.91155 77.108123,52.04555 75.091123,62.48555 C 74.356123,66.28355 69.698123,88.16055 63.961123,76.14655 C 58.681123,65.09055 58.210123,50.83155 57.332123,38.80655 C 56.998123,34.24955 56.052123,28.88155 59.144123,25.02555 C 64.372123,18.50455 79.002123,20.63055 79.002123,30.23855" id="path18" style="fill:#ffffff"/>
  <path d="M 81.092631,105.85391 C 81.092631,88.603909 54.341631,88.605909 54.341631,105.85391 C 54.341631,123.10391 81.092631,123.10591 81.092631,105.85391" id="path20" style="fill:#d05800;fill-opacity:1"/>
  <path d="M 77.982631,105.85391 C 77.982631,92.612909 57.450631,92.615909 57.450631,105.85391 C 57.450631,119.09491 77.982631,119.09691 77.982631,105.85391" id="path22" style="fill:#ffffff"/>
</svg>